<?xml version="1.0" encoding="utf-8"?>
<svg xmlns="http://www.w3.org/2000/svg" viewBox="0 0 128 128" width="32" height="32">
  <path d="M18.5 0.80078125C14.5 0.80078125 10.999219 3.6996094 10.199219 7.5996094L3 43.800781C2.4 47.000781 3.2007813 50.400391 5.3007812 52.900391C7.4007812 55.400391 10.500781 56.900391 13.800781 56.900391L94.199219 56.900391C101.29922 56.900391 107.50039 51.800781 108.90039 44.800781L116.09961 9C116.29961 7.8 117.4 7 118.5 7C119.9 7 121 8.1 121 9.5L121 121L42 121L42 72C42 70.3 40.7 69 39 69L14 69C12.3 69 11 70.3 11 72L11 121L4 121C2.3 121 1 122.3 1 124C1 125.7 2.3 127 4 127L14 127C15.7 127 17 125.7 17 124L17 75L36 75L36 124C36 125.7 37.3 127 39 127L124 127C125.7 127 127 125.7 127 124L127 9.5C127 4.8 123.2 1 118.5 1C114.5 1 110.99922 3.9007813 110.19922 7.8007812L103 43.800781C102.2 48.000781 98.399219 51 94.199219 51L13.800781 51C12.300781 51 10.900391 50.299219 9.9003906 49.199219C8.9003906 47.999219 8.6003906 46.5 8.9003906 45L16.099609 9C16.299609 7.8 17.4 7 18.5 7L87.300781 7C88.300781 7 88.999219 7.6003906 89.199219 7.9003906C89.499219 8.2003906 89.899219 9 89.699219 10L83 43.800781C82.7 45.400781 83.700391 47.000781 85.400391 47.300781C87.000391 47.600781 88.600391 46.600391 88.900391 44.900391L95.699219 11C96.199219 8.5 95.600391 5.9003906 93.900391 3.9003906C92.300391 1.9003906 89.900781 0.80078125 87.300781 0.80078125L18.5 0.80078125 z M 32.001953 11.017578C30.619727 10.982031 29.362109 12.000391 29.099609 13.400391L23 43.800781C22.7 45.400781 23.700391 47.000781 25.400391 47.300781C25.600391 47.300781 25.8 47.400391 26 47.400391C27.4 47.400391 28.700391 46.4 28.900391 45L35 14.599609C35.3 12.999609 34.299609 11.399609 32.599609 11.099609C32.399609 11.049609 32.199414 11.022656 32.001953 11.017578 z M 52.001953 11.017578C50.619727 10.982031 49.362109 12.000391 49.099609 13.400391L43 43.800781C42.7 45.400781 43.700391 47.000781 45.400391 47.300781C45.600391 47.300781 45.8 47.400391 46 47.400391C47.4 47.400391 48.700391 46.4 48.900391 45L55 14.599609C55.3 12.999609 54.299609 11.399609 52.599609 11.099609C52.399609 11.049609 52.199414 11.022656 52.001953 11.017578 z M 72.001953 11.017578C70.619727 10.982031 69.362109 12.000391 69.099609 13.400391L63 43.800781C62.7 45.400781 63.700391 47.000781 65.400391 47.300781C65.600391 47.300781 65.8 47.400391 66 47.400391C67.4 47.400391 68.700391 46.4 68.900391 45L75 14.599609C75.3 12.999609 74.299609 11.399609 72.599609 11.099609C72.399609 11.049609 72.199414 11.022656 72.001953 11.017578 z M 55 69C53.3 69 52 70.3 52 72L52 109C52 110.7 53.3 112 55 112L110 112C111.7 112 113 110.7 113 109L113 72C113 70.3 111.7 69 110 69L55 69 z M 58 75L107 75L107 106L58 106L58 75 z" fill="#FFFFFF" />
</svg>